<?xml version="1.0" encoding="UTF-8"?>
<svg xmlns="http://www.w3.org/2000/svg" xmlns:xlink="http://www.w3.org/1999/xlink" width="20px" height="20px" viewBox="0 0 20 20" version="1.1">
<g id="surface1">
<path style=" stroke:none;fill-rule:nonzero;fill:rgb(67.843137%,22.745098%,11.372549%);fill-opacity:1;" d="M 7.832031 13.375 L 10 11.6875 L 12.167969 13.375 L 11.332031 10.707031 L 13.375 9 L 10.875 9 L 10 6.457031 L 9.125 9 L 6.625 9 L 8.667969 10.707031 Z M 2.917969 16.667969 C 2.554688 16.667969 2.257812 16.546875 2.019531 16.3125 C 1.785156 16.078125 1.667969 15.777344 1.667969 15.417969 L 1.667969 12.230469 C 2.179688 12.117188 2.609375 11.859375 2.949219 11.449219 C 3.289062 11.039062 3.457031 10.554688 3.457031 10 C 3.457031 9.445312 3.289062 8.957031 2.949219 8.542969 C 2.609375 8.125 2.179688 7.867188 1.667969 7.769531 L 1.667969 4.582031 C 1.667969 4.222656 1.785156 3.921875 2.019531 3.6875 C 2.257812 3.453125 2.554688 3.332031 2.917969 3.332031 L 17.082031 3.332031 C 17.445312 3.332031 17.742188 3.453125 17.980469 3.6875 C 18.214844 3.921875 18.332031 4.222656 18.332031 4.582031 L 18.332031 7.769531 C 17.820312 7.867188 17.390625 8.125 17.050781 8.542969 C 16.710938 8.957031 16.542969 9.445312 16.542969 10 C 16.542969 10.554688 16.710938 11.039062 17.050781 11.449219 C 17.390625 11.859375 17.820312 12.117188 18.332031 12.230469 L 18.332031 15.417969 C 18.332031 15.777344 18.214844 16.078125 17.980469 16.3125 C 17.742188 16.546875 17.445312 16.667969 17.082031 16.667969 Z M 2.917969 15.417969 L 17.082031 15.417969 L 17.082031 13.144531 C 16.554688 12.785156 16.125 12.332031 15.792969 11.792969 C 15.457031 11.25 15.292969 10.652344 15.292969 10 C 15.292969 9.347656 15.457031 8.75 15.792969 8.207031 C 16.125 7.667969 16.554688 7.214844 17.082031 6.855469 L 17.082031 4.582031 L 2.917969 4.582031 L 2.917969 6.855469 C 3.457031 7.214844 3.890625 7.667969 4.21875 8.207031 C 4.546875 8.75 4.707031 9.347656 4.707031 10 C 4.707031 10.652344 4.546875 11.25 4.21875 11.792969 C 3.890625 12.332031 3.457031 12.785156 2.917969 13.144531 Z M 10 10 Z M 10 10 "/>
</g>
</svg>
