<?xml version="1.0" encoding="UTF-8"?>
<svg xmlns="http://www.w3.org/2000/svg" xmlns:xlink="http://www.w3.org/1999/xlink" width="30px" height="30px" viewBox="0 0 30 30" version="1.1">
<g id="surface1">
<path style=" stroke:none;fill-rule:nonzero;fill:rgb(67.843137%,22.745098%,11.372549%);fill-opacity:1;" d="M 5.625 27.496094 C 5.128906 27.496094 4.6875 27.308594 4.3125 26.933594 C 3.9375 26.558594 3.75 26.128906 3.75 25.621094 L 3.75 6.253906 C 3.75 5.746094 3.9375 5.316406 4.3125 4.941406 C 4.6875 4.566406 5.128906 4.378906 5.625 4.378906 L 7.660156 4.378906 L 7.660156 2.503906 L 9.683594 2.503906 L 9.683594 4.378906 L 20.316406 4.378906 L 20.316406 2.503906 L 22.339844 2.503906 L 22.339844 4.378906 L 24.375 4.378906 C 24.871094 4.378906 25.3125 4.566406 25.6875 4.941406 C 26.0625 5.316406 26.25 5.746094 26.25 6.253906 L 26.25 25.621094 C 26.25 26.128906 26.0625 26.558594 25.6875 26.933594 C 25.3125 27.308594 24.871094 27.496094 24.375 27.496094 Z M 5.625 25.621094 L 24.375 25.621094 L 24.375 12.1875 L 5.625 12.1875 Z M 5.625 10.3125 L 24.375 10.3125 L 24.375 6.253906 L 5.625 6.253906 Z M 5.625 10.3125 L 5.625 6.253906 Z M 15 17.503906 C 14.648438 17.503906 14.347656 17.378906 14.109375 17.136719 C 13.871094 16.898438 13.753906 16.605469 13.753906 16.246094 C 13.753906 15.894531 13.871094 15.597656 14.109375 15.355469 C 14.347656 15.117188 14.648438 15 15 15 C 15.351562 15 15.652344 15.117188 15.890625 15.355469 C 16.128906 15.597656 16.246094 15.894531 16.246094 16.246094 C 16.246094 16.605469 16.128906 16.898438 15.890625 17.136719 C 15.652344 17.378906 15.351562 17.503906 15 17.503906 Z M 10.003906 17.503906 C 9.644531 17.503906 9.351562 17.378906 9.113281 17.136719 C 8.871094 16.898438 8.746094 16.605469 8.746094 16.246094 C 8.746094 15.894531 8.871094 15.597656 9.113281 15.355469 C 9.351562 15.117188 9.644531 15 10.003906 15 C 10.355469 15 10.652344 15.117188 10.894531 15.355469 C 11.132812 15.597656 11.25 15.894531 11.25 16.246094 C 11.25 16.605469 11.132812 16.898438 10.894531 17.136719 C 10.652344 17.378906 10.355469 17.503906 10.003906 17.503906 Z M 19.996094 17.503906 C 19.644531 17.503906 19.347656 17.378906 19.105469 17.136719 C 18.867188 16.898438 18.75 16.605469 18.75 16.246094 C 18.75 15.894531 18.867188 15.597656 19.105469 15.355469 C 19.347656 15.117188 19.644531 15 19.996094 15 C 20.355469 15 20.648438 15.117188 20.886719 15.355469 C 21.128906 15.597656 21.253906 15.894531 21.253906 16.246094 C 21.253906 16.605469 21.128906 16.898438 20.886719 17.136719 C 20.648438 17.378906 20.355469 17.503906 19.996094 17.503906 Z M 15 22.5 C 14.648438 22.5 14.347656 22.382812 14.109375 22.144531 C 13.871094 21.902344 13.753906 21.605469 13.753906 21.253906 C 13.753906 20.894531 13.871094 20.601562 14.109375 20.363281 C 14.347656 20.121094 14.648438 19.996094 15 19.996094 C 15.351562 19.996094 15.652344 20.121094 15.890625 20.363281 C 16.128906 20.601562 16.246094 20.894531 16.246094 21.253906 C 16.246094 21.605469 16.128906 21.902344 15.890625 22.144531 C 15.652344 22.382812 15.351562 22.5 15 22.5 Z M 10.003906 22.5 C 9.644531 22.5 9.351562 22.382812 9.113281 22.144531 C 8.871094 21.902344 8.746094 21.605469 8.746094 21.253906 C 8.746094 20.894531 8.871094 20.601562 9.113281 20.363281 C 9.351562 20.121094 9.644531 19.996094 10.003906 19.996094 C 10.355469 19.996094 10.652344 20.121094 10.894531 20.363281 C 11.132812 20.601562 11.25 20.894531 11.25 21.253906 C 11.25 21.605469 11.132812 21.902344 10.894531 22.144531 C 10.652344 22.382812 10.355469 22.5 10.003906 22.5 Z M 19.996094 22.5 C 19.644531 22.5 19.347656 22.382812 19.105469 22.144531 C 18.867188 21.902344 18.75 21.605469 18.75 21.253906 C 18.75 20.894531 18.867188 20.601562 19.105469 20.363281 C 19.347656 20.121094 19.644531 19.996094 19.996094 19.996094 C 20.355469 19.996094 20.648438 20.121094 20.886719 20.363281 C 21.128906 20.601562 21.253906 20.894531 21.253906 21.253906 C 21.253906 21.605469 21.128906 21.902344 20.886719 22.144531 C 20.648438 22.382812 20.355469 22.5 19.996094 22.5 Z M 19.996094 22.5 "/>
</g>
</svg>
