<?xml version="1.0" encoding="UTF-8"?>
<svg xmlns="http://www.w3.org/2000/svg" xmlns:xlink="http://www.w3.org/1999/xlink" width="20px" height="20px" viewBox="0 0 20 20" version="1.1">
<g id="surface1">
<path style=" stroke:none;fill-rule:nonzero;fill:rgb(67.843137%,22.745098%,11.372549%);fill-opacity:1;" d="M 3.75 18.332031 C 3.417969 18.332031 3.125 18.207031 2.875 17.957031 C 2.625 17.707031 2.5 17.417969 2.5 17.082031 L 2.5 4.167969 C 2.5 3.832031 2.625 3.542969 2.875 3.292969 C 3.125 3.042969 3.417969 2.917969 3.75 2.917969 L 5.105469 2.917969 L 5.105469 1.667969 L 6.457031 1.667969 L 6.457031 2.917969 L 13.542969 2.917969 L 13.542969 1.667969 L 14.894531 1.667969 L 14.894531 2.917969 L 16.25 2.917969 C 16.582031 2.917969 16.875 3.042969 17.125 3.292969 C 17.375 3.542969 17.5 3.832031 17.5 4.167969 L 17.5 17.082031 C 17.5 17.417969 17.375 17.707031 17.125 17.957031 C 16.875 18.207031 16.582031 18.332031 16.25 18.332031 Z M 3.75 17.082031 L 16.25 17.082031 L 16.25 8.125 L 3.75 8.125 Z M 3.75 6.875 L 16.25 6.875 L 16.25 4.167969 L 3.75 4.167969 Z M 3.75 6.875 L 3.75 4.167969 Z M 10 11.667969 C 9.765625 11.667969 9.566406 11.585938 9.40625 11.425781 C 9.246094 11.265625 9.167969 11.070312 9.167969 10.832031 C 9.167969 10.597656 9.246094 10.398438 9.40625 10.238281 C 9.566406 10.078125 9.765625 10 10 10 C 10.234375 10 10.433594 10.078125 10.59375 10.238281 C 10.753906 10.398438 10.832031 10.597656 10.832031 10.832031 C 10.832031 11.070312 10.753906 11.265625 10.59375 11.425781 C 10.433594 11.585938 10.234375 11.667969 10 11.667969 Z M 6.667969 11.667969 C 6.429688 11.667969 6.234375 11.585938 6.074219 11.425781 C 5.914062 11.265625 5.832031 11.070312 5.832031 10.832031 C 5.832031 10.597656 5.914062 10.398438 6.074219 10.238281 C 6.234375 10.078125 6.429688 10 6.667969 10 C 6.902344 10 7.101562 10.078125 7.261719 10.238281 C 7.421875 10.398438 7.5 10.597656 7.5 10.832031 C 7.5 11.070312 7.421875 11.265625 7.261719 11.425781 C 7.101562 11.585938 6.902344 11.667969 6.667969 11.667969 Z M 13.332031 11.667969 C 13.097656 11.667969 12.898438 11.585938 12.738281 11.425781 C 12.578125 11.265625 12.5 11.070312 12.5 10.832031 C 12.5 10.597656 12.578125 10.398438 12.738281 10.238281 C 12.898438 10.078125 13.097656 10 13.332031 10 C 13.570312 10 13.765625 10.078125 13.925781 10.238281 C 14.085938 10.398438 14.167969 10.597656 14.167969 10.832031 C 14.167969 11.070312 14.085938 11.265625 13.925781 11.425781 C 13.765625 11.585938 13.570312 11.667969 13.332031 11.667969 Z M 10 15 C 9.765625 15 9.566406 14.921875 9.40625 14.761719 C 9.246094 14.601562 9.167969 14.402344 9.167969 14.167969 C 9.167969 13.929688 9.246094 13.734375 9.40625 13.574219 C 9.566406 13.414062 9.765625 13.332031 10 13.332031 C 10.234375 13.332031 10.433594 13.414062 10.59375 13.574219 C 10.753906 13.734375 10.832031 13.929688 10.832031 14.167969 C 10.832031 14.402344 10.753906 14.601562 10.59375 14.761719 C 10.433594 14.921875 10.234375 15 10 15 Z M 6.667969 15 C 6.429688 15 6.234375 14.921875 6.074219 14.761719 C 5.914062 14.601562 5.832031 14.402344 5.832031 14.167969 C 5.832031 13.929688 5.914062 13.734375 6.074219 13.574219 C 6.234375 13.414062 6.429688 13.332031 6.667969 13.332031 C 6.902344 13.332031 7.101562 13.414062 7.261719 13.574219 C 7.421875 13.734375 7.5 13.929688 7.5 14.167969 C 7.5 14.402344 7.421875 14.601562 7.261719 14.761719 C 7.101562 14.921875 6.902344 15 6.667969 15 Z M 13.332031 15 C 13.097656 15 12.898438 14.921875 12.738281 14.761719 C 12.578125 14.601562 12.5 14.402344 12.5 14.167969 C 12.5 13.929688 12.578125 13.734375 12.738281 13.574219 C 12.898438 13.414062 13.097656 13.332031 13.332031 13.332031 C 13.570312 13.332031 13.765625 13.414062 13.925781 13.574219 C 14.085938 13.734375 14.167969 13.929688 14.167969 14.167969 C 14.167969 14.402344 14.085938 14.601562 13.925781 14.761719 C 13.765625 14.921875 13.570312 15 13.332031 15 Z M 13.332031 15 "/>
</g>
</svg>
