<?xml version="1.0" encoding="UTF-8"?>
<svg xmlns="http://www.w3.org/2000/svg" xmlns:xlink="http://www.w3.org/1999/xlink" width="20px" height="20px" viewBox="0 0 20 20" version="1.1">
<g id="surface1">
<path style=" stroke:none;fill-rule:nonzero;fill:rgb(67.843137%,22.745098%,11.372549%);fill-opacity:1;" d="M 9.4375 14.167969 L 10.6875 14.167969 L 10.6875 9.167969 L 9.4375 9.167969 Z M 10 7.625 C 10.195312 7.625 10.359375 7.5625 10.488281 7.4375 C 10.621094 7.3125 10.6875 7.152344 10.6875 6.957031 C 10.6875 6.765625 10.621094 6.597656 10.488281 6.457031 C 10.359375 6.320312 10.195312 6.25 10 6.25 C 9.804688 6.25 9.640625 6.320312 9.511719 6.457031 C 9.378906 6.597656 9.3125 6.765625 9.3125 6.957031 C 9.3125 7.152344 9.378906 7.3125 9.511719 7.4375 C 9.640625 7.5625 9.804688 7.625 10 7.625 Z M 10 18.332031 C 8.859375 18.332031 7.785156 18.113281 6.769531 17.675781 C 5.757812 17.238281 4.871094 16.640625 4.113281 15.886719 C 3.359375 15.128906 2.761719 14.242188 2.324219 13.230469 C 1.886719 12.214844 1.667969 11.132812 1.667969 9.980469 C 1.667969 8.839844 1.886719 7.765625 2.324219 6.75 C 2.761719 5.734375 3.359375 4.855469 4.113281 4.105469 C 4.871094 3.355469 5.757812 2.761719 6.769531 2.324219 C 7.785156 1.886719 8.867188 1.667969 10.019531 1.667969 C 11.160156 1.667969 12.234375 1.886719 13.25 2.324219 C 14.265625 2.761719 15.144531 3.355469 15.894531 4.105469 C 16.644531 4.855469 17.238281 5.734375 17.675781 6.75 C 18.113281 7.765625 18.332031 8.847656 18.332031 10 C 18.332031 11.140625 18.113281 12.214844 17.675781 13.230469 C 17.238281 14.242188 16.644531 15.128906 15.894531 15.886719 C 15.144531 16.640625 14.265625 17.238281 13.25 17.675781 C 12.234375 18.113281 11.152344 18.332031 10 18.332031 Z M 10.019531 17.082031 C 11.980469 17.082031 13.644531 16.390625 15.019531 15.011719 C 16.394531 13.628906 17.082031 11.953125 17.082031 9.980469 C 17.082031 8.019531 16.394531 6.355469 15.019531 4.980469 C 13.644531 3.605469 11.972656 2.917969 10 2.917969 C 8.042969 2.917969 6.371094 3.605469 4.988281 4.980469 C 3.609375 6.355469 2.917969 8.027344 2.917969 10 C 2.917969 11.957031 3.609375 13.628906 4.988281 15.011719 C 6.371094 16.390625 8.046875 17.082031 10.019531 17.082031 Z M 10 10 Z M 10 10 "/>
</g>
</svg>
