<?xml version="1.0" encoding="UTF-8"?>
<svg xmlns="http://www.w3.org/2000/svg" xmlns:xlink="http://www.w3.org/1999/xlink" width="30px" height="30px" viewBox="0 0 30 30" version="1.1">
<g id="surface1">
<path style=" stroke:none;fill-rule:nonzero;fill:rgb(67.843137%,22.745098%,11.372549%);fill-opacity:1;" d="M 14.15625 21.253906 L 16.03125 21.253906 L 16.03125 13.753906 L 14.15625 13.753906 Z M 15 11.4375 C 15.292969 11.4375 15.539062 11.34375 15.730469 11.15625 C 15.933594 10.96875 16.03125 10.730469 16.03125 10.433594 C 16.03125 10.148438 15.933594 9.894531 15.730469 9.683594 C 15.539062 9.480469 15.292969 9.375 15 9.375 C 14.707031 9.375 14.460938 9.480469 14.269531 9.683594 C 14.066406 9.894531 13.96875 10.148438 13.96875 10.433594 C 13.96875 10.730469 14.066406 10.96875 14.269531 11.15625 C 14.460938 11.34375 14.707031 11.4375 15 11.4375 Z M 15 27.496094 C 13.289062 27.496094 11.675781 27.167969 10.152344 26.511719 C 8.636719 25.855469 7.308594 24.960938 6.167969 23.832031 C 5.039062 22.691406 4.144531 21.363281 3.488281 19.847656 C 2.832031 18.324219 2.503906 16.699219 2.503906 14.972656 C 2.503906 13.261719 2.832031 11.648438 3.488281 10.125 C 4.144531 8.601562 5.039062 7.285156 6.167969 6.160156 C 7.308594 5.035156 8.636719 4.144531 10.152344 3.488281 C 11.675781 2.832031 13.300781 2.503906 15.027344 2.503906 C 16.738281 2.503906 18.351562 2.832031 19.875 3.488281 C 21.398438 4.144531 22.714844 5.035156 23.839844 6.160156 C 24.964844 7.285156 25.855469 8.601562 26.511719 10.125 C 27.167969 11.648438 27.496094 13.269531 27.496094 15 C 27.496094 16.710938 27.167969 18.324219 26.511719 19.847656 C 25.855469 21.363281 24.964844 22.691406 23.839844 23.832031 C 22.714844 24.960938 21.398438 25.855469 19.875 26.511719 C 18.351562 27.167969 16.730469 27.496094 15 27.496094 Z M 15.027344 25.621094 C 17.972656 25.621094 20.464844 24.585938 22.527344 22.519531 C 24.589844 20.441406 25.621094 17.929688 25.621094 14.972656 C 25.621094 12.027344 24.589844 9.535156 22.527344 7.472656 C 20.464844 5.410156 17.957031 4.378906 15 4.378906 C 12.066406 4.378906 9.558594 5.410156 7.480469 7.472656 C 5.414062 9.535156 4.378906 12.042969 4.378906 15 C 4.378906 17.933594 5.414062 20.441406 7.480469 22.519531 C 9.558594 24.585938 12.070312 25.621094 15.027344 25.621094 Z M 15 15 Z M 15 15 "/>
</g>
</svg>
