<?xml version="1.0" encoding="UTF-8"?>
<svg xmlns="http://www.w3.org/2000/svg" xmlns:xlink="http://www.w3.org/1999/xlink" width="20px" height="20px" viewBox="0 0 20 20" version="1.1">
<g id="surface1">
<path style=" stroke:none;fill-rule:nonzero;fill:rgb(67.843137%,22.745098%,11.372549%);fill-opacity:1;" d="M 5 17.5 L 5 2.5 L 11 2.5 C 12.359375 2.5 13.507812 2.964844 14.4375 3.898438 C 15.367188 4.828125 15.832031 5.972656 15.832031 7.335938 C 15.832031 8.695312 15.367188 9.839844 14.4375 10.773438 C 13.507812 11.703125 12.359375 12.164062 11 12.164062 L 7.5 12.164062 L 7.5 17.5 Z M 7.5 9.664062 L 11 9.664062 C 11.667969 9.664062 12.222656 9.445312 12.664062 9 C 13.113281 8.554688 13.332031 8 13.332031 7.335938 C 13.332031 6.667969 13.113281 6.109375 12.664062 5.667969 C 12.222656 5.222656 11.667969 5 11 5 L 7.5 5 Z M 7.5 9.664062 "/>
</g>
</svg>
