<?xml version="1.0" encoding="UTF-8"?>
<svg xmlns="http://www.w3.org/2000/svg" xmlns:xlink="http://www.w3.org/1999/xlink" width="20px" height="20px" viewBox="0 0 20 20" version="1.1">
<g id="surface1">
<path style=" stroke:none;fill-rule:nonzero;fill:rgb(67.843137%,22.745098%,11.372549%);fill-opacity:1;" d="M 11.25 11.25 C 10.554688 11.25 9.964844 11.007812 9.480469 10.519531 C 8.992188 10.035156 8.75 9.445312 8.75 8.75 C 8.75 8.054688 8.992188 7.464844 9.480469 6.980469 C 9.964844 6.492188 10.554688 6.25 11.25 6.25 C 11.945312 6.25 12.535156 6.492188 13.019531 6.980469 C 13.507812 7.464844 13.75 8.054688 13.75 8.75 C 13.75 9.445312 13.507812 10.035156 13.019531 10.519531 C 12.535156 11.007812 11.945312 11.25 11.25 11.25 Z M 4.582031 14.167969 C 4.234375 14.167969 3.941406 14.046875 3.699219 13.800781 C 3.453125 13.558594 3.332031 13.265625 3.332031 12.917969 L 3.332031 4.582031 C 3.332031 4.234375 3.453125 3.941406 3.699219 3.699219 C 3.941406 3.453125 4.234375 3.332031 4.582031 3.332031 L 17.917969 3.332031 C 18.265625 3.332031 18.558594 3.453125 18.800781 3.699219 C 19.046875 3.941406 19.167969 4.234375 19.167969 4.582031 L 19.167969 12.917969 C 19.167969 13.265625 19.046875 13.558594 18.800781 13.800781 C 18.558594 14.046875 18.265625 14.167969 17.917969 14.167969 Z M 6.667969 12.917969 L 15.832031 12.917969 C 15.832031 12.335938 16.03125 11.839844 16.4375 11.4375 C 16.839844 11.03125 17.335938 10.832031 17.917969 10.832031 L 17.917969 6.667969 C 17.335938 6.667969 16.839844 6.46875 16.4375 6.0625 C 16.03125 5.660156 15.832031 5.164062 15.832031 4.582031 L 6.667969 4.582031 C 6.667969 5.164062 6.46875 5.660156 6.0625 6.0625 C 5.660156 6.46875 5.164062 6.667969 4.582031 6.667969 L 4.582031 10.832031 C 5.164062 10.832031 5.660156 11.03125 6.0625 11.4375 C 6.46875 11.839844 6.667969 12.335938 6.667969 12.917969 Z M 16.667969 16.667969 L 2.082031 16.667969 C 1.734375 16.667969 1.441406 16.546875 1.199219 16.300781 C 0.953125 16.058594 0.832031 15.765625 0.832031 15.417969 L 0.832031 5.832031 L 2.082031 5.832031 L 2.082031 15.417969 L 16.667969 15.417969 Z M 4.582031 12.917969 L 4.582031 4.582031 Z M 4.582031 12.917969 "/>
</g>
</svg>
