<?xml version="1.0" encoding="UTF-8"?>
<svg xmlns="http://www.w3.org/2000/svg" xmlns:xlink="http://www.w3.org/1999/xlink" width="30px" height="30px" viewBox="0 0 30 30" version="1.1">
<g id="surface1">
<path style=" stroke:none;fill-rule:nonzero;fill:rgb(67.843137%,22.745098%,11.372549%);fill-opacity:1;" d="M 16.875 16.875 C 15.832031 16.875 14.949219 16.511719 14.222656 15.777344 C 13.488281 15.050781 13.125 14.167969 13.125 13.125 C 13.125 12.082031 13.488281 11.199219 14.222656 10.472656 C 14.949219 9.738281 15.832031 9.375 16.875 9.375 C 17.917969 9.375 18.800781 9.738281 19.527344 10.472656 C 20.261719 11.199219 20.625 12.082031 20.625 13.125 C 20.625 14.167969 20.261719 15.050781 19.527344 15.777344 C 18.800781 16.511719 17.917969 16.875 16.875 16.875 Z M 6.871094 21.253906 C 6.351562 21.253906 5.910156 21.070312 5.550781 20.699219 C 5.179688 20.339844 4.996094 19.898438 4.996094 19.378906 L 4.996094 6.871094 C 4.996094 6.351562 5.179688 5.910156 5.550781 5.550781 C 5.910156 5.179688 6.351562 4.996094 6.871094 4.996094 L 26.878906 4.996094 C 27.398438 4.996094 27.839844 5.179688 28.199219 5.550781 C 28.570312 5.910156 28.753906 6.351562 28.753906 6.871094 L 28.753906 19.378906 C 28.753906 19.898438 28.570312 20.339844 28.199219 20.699219 C 27.839844 21.070312 27.398438 21.253906 26.878906 21.253906 Z M 10.003906 19.378906 L 23.746094 19.378906 C 23.746094 18.503906 24.046875 17.761719 24.65625 17.15625 C 25.261719 16.546875 26.003906 16.246094 26.878906 16.246094 L 26.878906 10.003906 C 26.003906 10.003906 25.261719 9.703125 24.65625 9.09375 C 24.046875 8.488281 23.746094 7.746094 23.746094 6.871094 L 10.003906 6.871094 C 10.003906 7.746094 9.703125 8.488281 9.09375 9.09375 C 8.488281 9.703125 7.746094 10.003906 6.871094 10.003906 L 6.871094 16.246094 C 7.746094 16.246094 8.488281 16.546875 9.09375 17.15625 C 9.703125 17.761719 10.003906 18.503906 10.003906 19.378906 Z M 25.003906 25.003906 L 3.121094 25.003906 C 2.601562 25.003906 2.160156 24.820312 1.800781 24.449219 C 1.429688 24.089844 1.246094 23.648438 1.246094 23.128906 L 1.246094 8.746094 L 3.121094 8.746094 L 3.121094 23.128906 L 25.003906 23.128906 Z M 6.871094 19.378906 L 6.871094 6.871094 Z M 6.871094 19.378906 "/>
</g>
</svg>
