<?xml version="1.0" encoding="UTF-8"?>
<svg xmlns="http://www.w3.org/2000/svg" xmlns:xlink="http://www.w3.org/1999/xlink" width="30px" height="30px" viewBox="0 0 30 30" version="1.1">
<g id="surface1">
<path style=" stroke:none;fill-rule:nonzero;fill:rgb(67.843137%,22.745098%,11.372549%);fill-opacity:1;" d="M 19.59375 21.03125 L 21 19.625 L 16.03125 14.625 L 16.03125 8.34375 L 14.15625 8.34375 L 14.15625 15.375 Z M 15 27.5 C 13.292969 27.5 11.675781 27.171875 10.15625 26.515625 C 8.636719 25.859375 7.308594 24.964844 6.171875 23.828125 C 5.035156 22.691406 4.140625 21.363281 3.484375 19.84375 C 2.828125 18.324219 2.5 16.707031 2.5 15 C 2.5 13.292969 2.828125 11.675781 3.484375 10.15625 C 4.140625 8.636719 5.035156 7.308594 6.171875 6.171875 C 7.308594 5.035156 8.636719 4.140625 10.15625 3.484375 C 11.675781 2.828125 13.292969 2.5 15 2.5 C 16.707031 2.5 18.324219 2.828125 19.84375 3.484375 C 21.363281 4.140625 22.691406 5.035156 23.828125 6.171875 C 24.964844 7.308594 25.859375 8.636719 26.515625 10.15625 C 27.171875 11.675781 27.5 13.292969 27.5 15 C 27.5 16.707031 27.171875 18.324219 26.515625 19.84375 C 25.859375 21.363281 24.964844 22.691406 23.828125 23.828125 C 22.691406 24.964844 21.363281 25.859375 19.84375 26.515625 C 18.324219 27.171875 16.707031 27.5 15 27.5 Z M 15 15 Z M 15 25.625 C 17.917969 25.625 20.417969 24.582031 22.5 22.5 C 24.582031 20.417969 25.625 17.917969 25.625 15 C 25.625 12.082031 24.582031 9.582031 22.5 7.5 C 20.417969 5.417969 17.917969 4.375 15 4.375 C 12.082031 4.375 9.582031 5.417969 7.5 7.5 C 5.417969 9.582031 4.375 12.082031 4.375 15 C 4.375 17.917969 5.417969 20.417969 7.5 22.5 C 9.582031 24.582031 12.082031 25.625 15 25.625 Z M 15 25.625 "/>
</g>
</svg>
